HIERARCHY
ROOT Hips
{
	OFFSET 0.00000 0.00000 0.00000
	CHANNELS 6 Xposition Yposition Zposition Zrotation Yrotation Xrotation 
	JOINT LHipJoint
	{
		OFFSET 0 0 0
		CHANNELS 3 Zrotation Yrotation Xrotation
		JOINT LeftUpLeg
		{
			OFFSET 1.53794 -1.55850 0.93568
			CHANNELS 3 Zrotation Yrotation Xrotation
			JOINT LeftLeg
			{
				OFFSET 2.28545 -6.27922 0.00000
				CHANNELS 3 Zrotation Yrotation Xrotation
				JOINT LeftFoot
				{
					OFFSET 2.37329 -6.52057 0.00000
					CHANNELS 3 Zrotation Yrotation Xrotation
					JOINT LeftToeBase
					{
						OFFSET 0.14846 -0.40788 2.09160
						CHANNELS 3 Zrotation Yrotation Xrotation
						End Site
						{
							OFFSET 0.00000 -0.00000 1.07536
						}
					}
				}
			}
		}
	}
	JOINT RHipJoint
	{
		OFFSET 0 0 0
		CHANNELS 3 Zrotation Yrotation Xrotation
		JOINT RightUpLeg
		{
			OFFSET -1.78290 -1.55850 0.93568
			CHANNELS 3 Zrotation Yrotation Xrotation
			JOINT RightLeg
			{
				OFFSET -2.24144 -6.15831 0.00000
				CHANNELS 3 Zrotation Yrotation Xrotation
				JOINT RightFoot
				{
					OFFSET -2.35091 -6.45907 0.00000
					CHANNELS 3 Zrotation Yrotation Xrotation
					JOINT RightToeBase
					{
						OFFSET -0.14428 -0.39641 2.07944
						CHANNELS 3 Zrotation Yrotation Xrotation
						End Site
						{
							OFFSET -0.00000 -0.00000 1.06864
						}
					}
				}
			}
		}
	}
	JOINT LowerBack
	{
		OFFSET 0 0 0
		CHANNELS 3 Zrotation Yrotation Xrotation
		JOINT Spine
		{
			OFFSET -0.08841 2.11430 -0.15818
			CHANNELS 3 Zrotation Yrotation Xrotation
			JOINT Spine1
			{
				OFFSET -0.00033 2.12605 -0.08097
				CHANNELS 3 Zrotation Yrotation Xrotation
				JOINT Neck
				{
					OFFSET 0 0 0
					CHANNELS 3 Zrotation Yrotation Xrotation
					JOINT Neck1
					{
						OFFSET 0.04431 1.59447 0.43193
						CHANNELS 3 Zrotation Yrotation Xrotation
						JOINT Head
						{
							OFFSET 0.00455 1.62017 -0.58852
							CHANNELS 3 Zrotation Yrotation Xrotation
							End Site
							{
								OFFSET -0.00920 1.72955 -0.25850
							}
						}
					}
				}
				JOINT LeftShoulder
				{
					OFFSET 0 0 0
					CHANNELS 3 Zrotation Yrotation Xrotation
					JOINT LeftArm
					{
						OFFSET 2.86490 1.49927 -0.33774
						CHANNELS 3 Zrotation Yrotation Xrotation
						JOINT LeftForeArm
						{
							OFFSET 4.87408 -0.00000 0.00000
							CHANNELS 3 Zrotation Yrotation Xrotation
							JOINT LeftHand
							{
								OFFSET 2.76729 -0.00000 0.00000
								CHANNELS 3 Zrotation Yrotation Xrotation
								JOINT LeftFingerBase
								{
									OFFSET 0 0 0
									CHANNELS 3 Zrotation Yrotation Xrotation
									JOINT LeftHandIndex1
									{
										OFFSET 0.98922 -0.00000 0.00000
										CHANNELS 3 Zrotation Yrotation Xrotation
										End Site
										{
											OFFSET 0.79753 -0.00000 0.00000
										}
									}
								}
								JOINT LThumb
								{
									OFFSET 0 0 0
									CHANNELS 3 Zrotation Yrotation Xrotation
									End Site
									{
										OFFSET 0.80972 -0.00000 0.80972
									}
								}
							}
						}
					}
				}
				JOINT RightShoulder
				{
					OFFSET 0 0 0
					CHANNELS 3 Zrotation Yrotation Xrotation
					JOINT RightArm
					{
						OFFSET -2.94414 1.45463 -0.25291
						CHANNELS 3 Zrotation Yrotation Xrotation
						JOINT RightForeArm
						{
							OFFSET -4.71404 -0.00000 0.00000
							CHANNELS 3 Zrotation Yrotation Xrotation
							JOINT RightHand
							{
								OFFSET -2.83468 -0.00000 0.00000
								CHANNELS 3 Zrotation Yrotation Xrotation
								JOINT RightFingerBase
								{
									OFFSET 0 0 0
									CHANNELS 3 Zrotation Yrotation Xrotation
									JOINT RightHandIndex1
									{
										OFFSET -0.86820 -0.00000 0.00000
										CHANNELS 3 Zrotation Yrotation Xrotation
										End Site
										{
											OFFSET -0.69996 -0.00000 0.00000
										}
									}
								}
								JOINT RThumb
								{
									OFFSET 0 0 0
									CHANNELS 3 Zrotation Yrotation Xrotation
									End Site
									{
										OFFSET -0.71065 -0.00000 0.71065
									}
								}
							}
						}
					}
				}
			}
		}
	}
}
MOTION
Frames: 9
Frame Time: .0083333
0.9314 16.0631 34.602 0 0 0 0 0 0 -21 0 0 0 0 0 0 0 0 0 0 0 0 0 0 21 0 0 0 0 0 0 0 0 0 0 0 0 0 0 0 0 0 0 0 0 0 0 -16 0 0 21 0 0 11 0 0 0 -8 0 0 0 0 0 0 0 0 0 0 0 0 0 0 0 0 0 0 0 0 8 0 0 0 0 0 0 0 0 0 0 0 0 0 0 0 0 0
0.9314 16.0631 34.6020 -175.6410 2.7400 -173.9630 0.0000 0.0000 0.0000 -10.3044 -14.9041 -33.2864 2.4801 9.8015 28.3364 1.2345 13.4525 20.6526 0.1014 -2.0539 -5.6546 0.0000 0.0000 0.0000 27.1757 -3.1005 5.6473 -3.7567 -11.8294 35.1310 -0.3817 -22.5342 18.5549 -0.5882 4.9105 -13.6536 1.1881 5.4421 -5.5626 -1.1736 7.2326 -0.3564 -1.2663 3.6332 3.0314 -1.3282 -1.1547 -32.7369 3.0935 -7.5072 44.3046 -0.8624 -3.4888 27.4585 -0.0000 0.0000 0.0000 -61.1182 36.4237 56.2977 93.5209 -59.9531 -63.0487 -0.0000 -0.0000 17.8990 15.3583 4.8106 1.3195 -7.1250 0.0000 -0.0000 -9.3531 34.8449 2.3583 -0.0000 0.0000 0.0000 83.3342 -9.9264 55.2776 -94.8485 59.9110 -64.1977 0.0000 0.0000 9.4662 -12.3198 -1.0156 0.2218 7.1250 -0.0000 -0.0000 11.2964 -30.9019 3.9598
0.9094 15.9726 34.3401 -175.5700 2.7053 -174.5310 0.0000 0.0000 0.0000 -11.2347 -13.4546 -32.9643 2.7433 10.2674 29.8472 0.7223 12.3263 16.3081 0.0744 -1.7597 -4.8421 0.0000 0.0000 0.0000 26.8895 -3.6895 5.1480 -4.4025 -12.6775 38.1731 -0.0543 -23.3796 16.8683 -0.5519 4.7592 -13.2231 1.3896 5.2979 -5.1374 -1.1615 7.0299 -0.3587 -1.4241 3.5342 2.8074 -1.2358 -1.0408 -33.6906 2.8020 -7.4335 44.7656 -1.1091 -3.4679 28.5306 0.0000 -0.0000 0.0000 -61.5060 36.3499 56.0087 93.1937 -59.9614 -62.7655 -0.0000 -0.0000 17.7812 15.5271 4.9670 1.3780 -7.1250 0.0000 -0.0000 -9.2362 35.0126 2.2901 0.0000 -0.0000 0.0000 83.5075 -10.7507 54.9422 -93.9170 59.9419 -63.3916 0.0000 0.0000 9.5088 -12.7261 -1.4009 0.3163 7.1250 -0.0000 -0.0000 11.0246 -31.2979 3.7545
0.8928 15.8908 34.0928 -175.6580 2.6216 -175.1190 0.0000 0.0000 0.0000 -12.1451 -12.5879 -32.2566 3.0711 10.8093 31.6394 0.4280 12.7379 13.7372 0.1639 -2.6083 -7.1900 0.0000 0.0000 0.0000 26.5112 -4.0963 4.3787 -5.1307 -13.5295 41.3845 0.2101 -23.6878 15.2042 -0.5347 4.6855 -13.0136 1.4134 5.1218 -4.7747 -1.1916 6.7950 -0.1413 -1.5098 3.4178 2.8267 -1.1403 -0.9440 -33.5677 2.9086 -7.2690 44.5584 -0.9807 -3.3803 28.1689 0.0000 -0.0000 0.0000 -62.1886 35.7834 55.4757 92.4267 -59.9777 -62.1014 -0.0000 -0.0000 17.8630 15.7979 4.8540 1.3715 -7.1250 0.0000 -0.0000 -8.9988 34.9094 2.2528 0.0000 -0.0000 0.0000 83.8492 -11.1627 54.3337 -92.3430 59.9792 -62.0290 0.0000 0.0000 9.8139 -12.9005 -1.6997 0.3892 7.1250 -0.0000 -0.0000 10.9241 -31.6029 3.6377
0.8740 15.8010 33.8420 -175.7740 2.5753 -175.7160 0.0000 0.0000 0.0000 -12.9597 -11.9605 -31.5484 3.3836 11.2915 33.2694 0.1297 12.8917 10.6369 0.0771 -1.7915 -4.9299 0.0000 0.0000 0.0000 26.0640 -4.4821 3.7787 -5.8749 -14.3061 44.4778 0.4634 -24.0928 13.6325 -0.5408 4.7119 -13.0885 1.3721 4.9396 -4.4188 -1.1876 6.5558 0.0441 -1.5253 3.2984 2.8043 -0.9539 -0.7972 -33.6601 2.8475 -7.0498 44.4846 -0.9770 -3.2741 28.0745 -0.0000 0.0000 0.0000 -62.9641 35.2929 54.9177 91.6251 -59.9900 -61.4073 -0.0000 -0.0000 17.9305 16.0616 4.8478 1.3938 -7.1250 0.0000 -0.0000 -8.7816 34.9149 2.1962 -0.0000 0.0000 0.0000 84.1015 -11.6619 53.7873 -90.8458 59.9973 -60.7324 0.0000 0.0000 10.0395 -13.1076 -2.0725 0.4825 7.1250 -0.0000 -0.0000 10.8071 -31.9840 3.4966
0.8558 15.7153 33.5966 -176.0380 2.5243 -176.3280 0.0000 0.0000 0.0000 -13.8077 -11.7157 -30.6818 3.7061 11.7587 34.8835 -0.1438 13.9760 7.9893 0.0590 -1.5670 -4.3105 0.0000 0.0000 0.0000 25.4635 -4.7672 3.0848 -6.6820 -15.0582 47.6612 0.6663 -24.2483 12.1641 -0.5506 4.7535 -13.2069 1.1835 4.7318 -4.0282 -1.2282 6.2931 0.2676 -1.5066 3.1668 2.7899 -0.8067 -0.6491 -33.6705 2.8821 -6.8507 44.3734 -0.9078 -3.1739 27.9099 -0.0000 -0.0000 0.0000 -63.8706 34.6266 54.2826 90.5546 -59.9988 -60.4803 -0.0000 -0.0000 18.0323 16.3856 4.9261 1.4464 -7.1250 0.0000 -0.0000 -8.5258 35.0103 2.1110 -0.0000 -0.0000 0.0000 84.4249 -12.1032 53.1497 -89.0581 59.9966 -59.1843 0.0000 0.0000 10.3028 -13.3060 -2.4376 0.5763 7.1250 -0.0000 -0.0000 10.6960 -32.3580 3.3615
0.8382 15.6344 33.3571 -176.4890 2.4895 -176.9390 0.0000 0.0000 0.0000 -14.7908 -11.7114 -29.6379 3.9974 12.1570 36.2897 -0.3982 15.3509 5.7149 0.0383 -1.2629 -3.4723 0.0000 0.0000 0.0000 24.6720 -4.9198 2.2835 -7.5482 -15.7766 50.9184 0.8155 -24.1901 10.8500 -0.5636 4.8086 -13.3634 0.7991 4.5062 -3.6359 -1.3146 6.0197 0.5389 -1.4235 3.0287 2.8089 -0.6882 -0.5075 -33.6165 2.9663 -6.6382 44.1951 -0.7913 -3.0671 27.6355 -0.0000 0.0000 0.0000 -64.9229 33.7404 53.5772 89.1508 -59.9973 -59.2646 -0.0000 -0.0000 18.1712 16.7583 5.0861 1.5292 -7.1250 0.0000 -0.0000 -8.2398 35.1926 2.0020 -0.0000 0.0000 0.0000 84.8013 -12.4513 52.4154 -86.9234 59.9642 -57.3359 0.0000 0.0000 10.6422 -13.4820 -2.8198 0.6757 7.1250 -0.0000 -0.0000 10.6052 -32.7495 3.2302
0.8221 15.5589 33.1255 -177.1670 2.4798 -177.5460 0.0000 0.0000 0.0000 -15.9775 -11.8170 -28.4875 4.2547 12.4919 37.4949 -0.6472 16.8092 3.6429 0.0190 -0.8888 -2.4429 0.0000 0.0000 0.0000 23.6489 -4.9266 1.3407 -8.4813 -16.4621 54.2784 0.9183 -23.9389 9.6540 -0.5707 4.8382 -13.4476 0.1753 4.2732 -3.2061 -1.4608 5.7516 0.8314 -1.2689 2.8917 2.8139 -0.5703 -0.3678 -33.5911 3.0478 -6.4162 43.9973 -0.6740 -2.9534 27.3563 0.0000 -0.0000 0.0000 -66.0565 32.6383 52.8786 87.4091 -59.9746 -57.7564 -0.0000 -0.0000 18.3353 17.1798 5.4183 1.6722 -7.1250 0.0000 -0.0000 -7.9343 35.5565 1.8557 0.0000 -0.0000 0.0000 85.2203 -12.7497 51.5739 -84.4409 59.8829 -55.1876 0.0000 0.0000 11.0774 -13.6727 -3.2548 0.7913 7.1250 -0.0000 -0.0000 10.5101 -33.1955 3.0852
0.8085 15.4888 32.9036 -178.0620 2.5102 -178.1360 0.0000 0.0000 0.0000 -17.3697 -11.8781 -27.2913 4.4711 12.7622 38.4849 -0.8755 18.1180 1.7699 0.0068 -0.5317 -1.4611 0.0000 0.0000 0.0000 22.4111 -4.7724 0.2451 -9.4745 -17.1036 57.7172 0.9893 -23.5512 8.5170 -0.5735 4.8496 -13.4801 -0.6620 4.0586 -2.7066 -1.6907 5.5216 1.1061 -1.0832 2.7735 2.7545 -0.4330 -0.2444 -33.5659 3.1151 -6.2213 43.7824 -0.5790 -2.8436 27.0615 -0.0000 0.0000 0.0000 -67.1272 31.3543 52.2907 85.3753 -59.9190 -55.9960 -0.0000 -0.0000 18.5471 17.6079 5.8949 1.8669 -7.1250 0.0000 -0.0000 -7.6404 36.0727 1.6890 -0.0000 0.0000 0.0000 85.7233 -13.0598 50.5671 -81.6645 59.7358 -52.7877 0.0000 0.0000 11.6584 -13.8294 -3.7323 0.9180 7.1250 -0.0000 -0.0000 10.4486 -33.6844 2.9409
